{"accessors":[{"bufferView":0,"byteOffset":0,"componentType":5126,"count":5040,"max":[0.5,10.0845003128052,0.5],"min":[-0.5,-0.5,-0.5],"normalized":false,"type":"VEC3"},{"bufferView":1,"byteOffset":0,"componentType":5126,"count":5040,"max":[1.0,1.0,1.0,1.0],"min":[-1.0,-0.000677252188324928,-1.0,-1.0],"normalized":false,"type":"VEC4"},{"bufferView":2,"byteOffset":0,"componentType":5126,"count":5040,"max":[1.0,1.0,1.0],"min":[-1.0,-1.0,-1.0],"normalized":false,"type":"VEC3"},{"bufferView":3,"byteOffset":0,"componentType":5126,"count":5040,"max":[1.0,1.0],"min":[-0.0000152587890625,-0.0000152587890625],"normalized":false,"type":"VEC2"},{"bufferView":4,"byteOffset":0,"componentType":5123,"count":9804,"max":[5039.0],"min":[0.0],"normalized":false,"type":"SCALAR"}],"asset":{"generator":"Godot Engine v4.4.stable.official@4c311cbee68c0b66ff8ebb8b0defdd9979dd2a41","version":"2.0"},"bufferViews":[{"buffer":0,"byteLength":60480,"byteOffset":0,"byteStride":12,"target":34962},{"buffer":0,"byteLength":80640,"byteOffset":60480,"byteStride":16,"target":34962},{"buffer":0,"byteLength":60480,"byteOffset":141120,"byteStride":12,"target":34962},{"buffer":0,"byteLength":40320,"byteOffset":201600,"byteStride":8,"target":34962},{"buffer":0,"byteLength":19608,"byteOffset":241920,"target":34963}],"buffers":[{"byteLength":261528,"uri":"elevation0.bin"}],"extensionsUsed":["GODOT_single_root"],"materials":[{"extensions":{},"pbrMetallicRoughness":{"baseColorFactor":[1.0,1.0,1.0,1.0],"metallicFactor":0.0,"roughnessFactor":1.0}}],"meshes":[{"extras":{"targetNames":[]},"primitives":[{"attributes":{"NORMAL":2,"POSITION":0,"TANGENT":1,"TEXCOORD_0":3},"indices":4,"material":0,"mode":4}]}],"nodes":[{"children":[1],"name":"Node3D"},{"mesh":0,"name":"Cube","rotation":[0.0,0.0,0.70710676908493,0.70710676908493],"scale":[9.63000011444092,0.00999999977648258,0.0109999999403954]}],"scene":0,"scenes":[{"nodes":[0]}]}